/* XPM */
static char *_db6937ff47f4ecae5b0a26f9e2bcb08[] = {
/* columns rows colors chars-per-pixel */
"72 72 92 1 ",
"  c #252B3E",
". c #262C40",
"X c #2A3247",
"o c #2D354C",
"O c #323B54",
"+ c #363F5B",
"@ c #37405C",
"# c #3A4562",
"$ c #3D4867",
"% c #3F4A6A",
"& c #414C6D",
"* c #434F71",
"= c #465275",
"- c #475478",
"; c #49567A",
": c #4C597D",
"> c #525E7E",
", c #4E5C83",
"< c #515E85",
"1 c #515F88",
"2 c #566285",
"3 c #5A6583",
"4 c #5F6986",
"5 c #54638E",
"6 c #59668C",
"7 c #5C698F",
"8 c #576590",
"9 c #586791",
"0 c #5C6B94",
"q c #646E8B",
"w c #66708C",
"e c #6A738E",
"r c #606E96",
"t c #627097",
"y c #6C7691",
"u c #657299",
"i c #69779C",
"p c #6D799D",
"a c #727A94",
"s c #767F99",
"d c #6F7CA0",
"f c #717EA1",
"g c #7B839C",
"h c #7581A4",
"j c #7985A6",
"k c #7B86A8",
"l c #7D89A9",
"z c #838BA3",
"x c #828DAC",
"c c #8690AE",
"v c #8C94AB",
"b c #959CAF",
"n c #8792B0",
"m c #8B95B1",
"M c #939CB5",
"N c #959EB9",
"B c #9DA3B5",
"V c #9BA4BD",
"C c #A1A7B8",
"Z c #A3A9BB",
"A c #A9AFBE",
"S c #A4ACC2",
"D c #ABB1C4",
"F c #AFB6CA",
"G c #B2B7C5",
"H c #B4B9C6",
"J c #B0B7CB",
"K c #B4BACE",
"L c #B9BECA",
"P c #B9BFD1",
"I c #BCC1D2",
"U c #C0C4CF",
"Y c #C2C6D3",
"T c #C4C9D5",
"R c #CACDD7",
"E c #C6CBD9",
"W c #C9CEDB",
"Q c #CDD1DD",
"! c #D3D6DD",
"~ c #D2D6E1",
"^ c #D7D9E1",
"/ c #D9DCE4",
"( c #DEE0E6",
") c #E3E5EB",
"_ c #E7E9EE",
"` c #E9EBEE",
"' c #EBEDF1",
"] c #EFF0F3",
"[ c #F3F4F6",
"{ c #F6F7F9",
"} c #FEFEFE",
"| c None",
/* pixels */
"||||||||||||||||||||||||||||||||||||||||||||||||||||||||||||||||||||||||",
"||||||||||||||||||||||||||||||||||||||||||||||||||||||||||||||||||||||||",
"||||||||||||||||||||||||||||||||||||||||||||||||||||||||||||||||||||||||",
"||||||||||||||||||||||||||||||||||||||||||||||||||||||||||||||||||||||||",
"||||||||||||||||||||||||||||||||||||||||||||||||||||||||||||||||||||||||",
"||||||||||||||||||||||||||||||||||||||||||||||||||||||||||||||||||||||||",
"||||||||||||||||||||||||||||||||||||||||||||||||||||||||||||||||||||||||",
"||||||||||||||||||||||||||||||||||||||||||||||||||||||||||||||||||||||||",
"||||||||||||||||||||||||||||||||||||||||||||||||||||||||||||||||||||||||",
"||||||||||||||hhhhhhhh|||||||||hhhhhh|||||||||||||||||||||||||||||||||||",
"||||||||||||hpt00900tuddhhh|||fi0900uidhhh||||||||||||||||||||||||||||||",
"|||||||||||f0555555585559rifhd55558855550tdhhh||||||||||||||||||||||||||",
"||||||||||f0555555555555558505555555555555580ifh||||||||||||||||||||||||",
"||||||||||t555555555555555555555555855555555555rdh||||||||||||||||||||||",
"||||||||||5555555555555555855555555555555555555550dh||||||||||||||||||||",
"||||||||||555555dhd055555555555550p85555555555555550fh||||||||||||||||||",
"||||||||||555555p[}}'~Fnr885555580{{/PMi8855555555555uh|||||||||||||||||",
"||||||||||5558852g}}}}}}{^Vt585552D}}}}}_Kx85858555885rf||||||||||||||||",
"||||||||||,555555,Z}}}}}}}}{x555552)}}}}}}}]Kd8555555589f|||||||||||||||",
"|||||||||||5555555,^}}}}}}}}'r55555q]}}}}}}}}}Ql555555559f||||||||||||||",
"|||||||||||O5555555w{}}}}}}}}S5555514)}}}}}}}}}}Wd55555550f|||||||||||||",
"||||||||||||%5555551Z}}}}}}}}_8555552>Y}}}}}}}}}}[N8555555u|||||||||||||",
"|||||||||||||,555555<_}}}}}}}}j5555555;z]}}}}}}}}}}J5555558d||||||||||||",
"||||||||||||||5555552v}}}}}}}}S55558555,>H{}}}}}}}}}D585555t||||||||||||",
"||||||||||||||O555555<)}}}}}}}Q5555555551;e~}}}}}}}}}k555558||||||||||||",
"|||||||||||||||,585555v}}}}}}}'855585555551-v]}}}}}}}W855555t|||||||||||",
"||||||||||||||||5555552]}}}}}}}0555555555555,3(}}}}}}{8555550|||||||||||",
"||||||||||||||||,855555A}}}}}}}f5555555555555<3[}}}}}}0555559|||||||||||",
"|||||||||||||||||555555p}}}}}}}x555555555555552/}}}}}]5555555|||||||||||",
"|||||||||||||||||155555,)}}}}}}M55555555555558l}}}}}}P555555;|||||||||||",
"|||||||||||||||||+555555D}}}}}}V5555555555558S{}}}}}{y555555||||||||||||",
"||||||||||||||||||555555z}}}}}}S55555555555M_}}}}}}}B1555555||||||||||||",
"||||||||||||||||||1555557}}}}}}S555555558x)}}}}}}}}L:555555$||||||||||||",
"||||||||||||||||||%555552)}}}}}D55555550I}}}}}}}}}H:5555555|||||||||||||",
"||||||||||||||||||#555555T}}}}}D5555555Q}}}}}}}}{b;5558555o|||||||||||||",
"|||||||||||||||||||555555D}}}}}S555555N}}}}}}}}`a:5555555*||||||||||||||",
"|||||||||||||||||||555585N}}}}}Z585855W}}}}}}}}g,8585585-|||||||||||||||",
"|||||||||||||||||||555555n}}}}}V555555~}}}}}}}}i5555555-||||||||||||||||",
"|||||||||||||||||||555555l}}}}}M555555K}}}}}}}}n5555555|||||||||||||||||",
"|||||||||||||||||||555555k}}}}}c555855m}}}}}}}}T5555555|||||||||||||||||",
"|||||||||||||||||||555555j}}}}}j5555555[}}}}}}}{i555555i||||||||||||||||",
"|||||||||||||||||||555555l}}}}}p5555555A}}}}}}}}T5555558f|||||||||||||||",
"|||||||||||||||||||555555c}}}}}r55585552'}}}}}}}}x5585850h||||||||||||||",
"||||||||hhhfhh|||||555555N}}}}{555555555z}}}}}}}}'r555555tf|||||||||||||",
"|||||||hu98880ph||p555555J}}}}_555555555,A}}}}}}}}E5555555i|||||||||||||",
"||||||d958558580fhu555555/}}}}~8858555555:T}}}}}}}}V5885585p||||||||||||",
"|||||f855555555580555555p}}}}}I55555555555:R}}}}}}}}l5555558f|||||||||||",
"|||||0555555555555555555K}}}}}Z555555555555:T}}}}}}}]i8555559f||||||||||",
"|||||555555555555855555h{}}}}}p5555855555555;G}}}}}}})05555550f|||||||||",
"|||||555555h8555555555t_}}}}}~<55555--5555555;v{}}}}}}~85555550f||||||||",
"|||||555855T/n8558555h)}}}}}}g555555O|,5555555,q/}}}}}}I8555555rh|||||||",
"|||||555555M}}_PNcnVE{}}}}}}L1555555|||15555555,:C{}}}}}D5555558th||||||",
"|||||5555555_}}}}}}}}}}}}}}^>555555%||||<55558552;4Y}}}}}V5555558u||||||",
"|||||=555555g{}}}}}}}}}}}}!>2555555||||||,555555551-yR}}}}m5555555p|||||",
"||||||555655<a`}}}}}}}}}{Z;5555558$|||||||-558558555,=qH{}{l8558550|||||",
"||||||;555555,:b^}}}}}_A3:5555555,|||||||||+5855555585,;:zI)d555555|||||",
"|||||||55555555;=:qay2*;155555555||||||||||||,55555555552,--r555555|||||",
"|||||||.5555555551,,<<5555555555 |||||||||||||@55555558555512555555|||||",
"||||||||X5555555555555555555555 ||||||||||||||||*555555555555555555|||||",
"||||||||||2555555555555555555,||||||||||||||||||||=555555555555855#|||||",
"|||||||||||&5555585555555555#|||||||||||||||||||||||$555555555555,||||||",
"|||||||||||||&555555555555#|||||||||||||||||||||||||||X-55555555;|||||||",
"|||||||||||||||.#;555<=+||||||||||||||||||||||||||||||||| $,55*.||||||||",
"||||||||||||||||||||||||||||||||||||||||||||||||||||||||||||||||||||||||",
"||||||||||||||||||||||||||||||||||||||||||||||||||||||||||||||||||||||||",
"||||||||||||||||||||||||||||||||||||||||||||||||||||||||||||||||||||||||",
"||||||||||||||||||||||||||||||||||||||||||||||||||||||||||||||||||||||||",
"||||||||||||||||||||||||||||||||||||||||||||||||||||||||||||||||||||||||",
"||||||||||||||||||||||||||||||||||||||||||||||||||||||||||||||||||||||||",
"||||||||||||||||||||||||||||||||||||||||||||||||||||||||||||||||||||||||",
"||||||||||||||||||||||||||||||||||||||||||||||||||||||||||||||||||||||||",
"||||||||||||||||||||||||||||||||||||||||||||||||||||||||||||||||||||||||"
};
